<mxfile host="app.diagrams.net" modified="2024-03-30T20:40:36.630Z" agent="Mozilla/5.0 (Windows NT 10.0; Win64; x64) AppleWebKit/537.36 (KHTML, like Gecko) Chrome/123.0.0.0 Safari/537.36" etag="xEFMnvJVsyGSljQWVpCq" version="24.2.1" type="google">
  <diagram name="Página-1" id="W96qsjiCgVPILVUTgbw7">
    <mxGraphModel grid="0" page="0" gridSize="10" guides="1" tooltips="1" connect="1" arrows="1" fold="1" pageScale="1" pageWidth="827" pageHeight="1169" math="0" shadow="0">
      <root>
        <mxCell id="0" />
        <mxCell id="1" parent="0" />
        <mxCell id="XJMGst-rCKcoRZPM2Gby-17" style="edgeStyle=orthogonalEdgeStyle;rounded=0;orthogonalLoop=1;jettySize=auto;html=1;exitX=0.5;exitY=0.5;exitDx=0;exitDy=0;exitPerimeter=0;entryX=0;entryY=0.5;entryDx=0;entryDy=0;" edge="1" parent="1" source="7GfxxB9h6kD8QiFGx-IR-1" target="XJMGst-rCKcoRZPM2Gby-16">
          <mxGeometry relative="1" as="geometry">
            <Array as="points">
              <mxPoint x="-218" y="278" />
              <mxPoint x="-218" y="222" />
            </Array>
          </mxGeometry>
        </mxCell>
        <mxCell id="XJMGst-rCKcoRZPM2Gby-29" style="edgeStyle=orthogonalEdgeStyle;rounded=0;orthogonalLoop=1;jettySize=auto;html=1;exitX=0.5;exitY=0.5;exitDx=0;exitDy=0;exitPerimeter=0;entryX=0;entryY=0.5;entryDx=0;entryDy=0;" edge="1" parent="1" source="7GfxxB9h6kD8QiFGx-IR-1" target="XJMGst-rCKcoRZPM2Gby-28">
          <mxGeometry relative="1" as="geometry">
            <Array as="points">
              <mxPoint x="-219" y="278" />
              <mxPoint x="-219" y="335" />
              <mxPoint x="-125" y="335" />
            </Array>
          </mxGeometry>
        </mxCell>
        <mxCell id="XJMGst-rCKcoRZPM2Gby-33" style="edgeStyle=orthogonalEdgeStyle;rounded=0;orthogonalLoop=1;jettySize=auto;html=1;exitX=0.5;exitY=0.5;exitDx=0;exitDy=0;exitPerimeter=0;entryX=0;entryY=0.5;entryDx=0;entryDy=0;" edge="1" parent="1" source="7GfxxB9h6kD8QiFGx-IR-1" target="XJMGst-rCKcoRZPM2Gby-26">
          <mxGeometry relative="1" as="geometry" />
        </mxCell>
        <mxCell id="7GfxxB9h6kD8QiFGx-IR-1" value="Usuario&lt;div&gt;&lt;br&gt;&lt;/div&gt;" style="shape=umlActor;verticalLabelPosition=bottom;verticalAlign=top;html=1;outlineConnect=0;" vertex="1" parent="1">
          <mxGeometry x="-274" y="248" width="30" height="60" as="geometry" />
        </mxCell>
        <mxCell id="XJMGst-rCKcoRZPM2Gby-36" style="edgeStyle=orthogonalEdgeStyle;rounded=0;orthogonalLoop=1;jettySize=auto;html=1;exitX=0.5;exitY=0.5;exitDx=0;exitDy=0;exitPerimeter=0;entryX=1;entryY=0.5;entryDx=0;entryDy=0;" edge="1" parent="1" source="7GfxxB9h6kD8QiFGx-IR-2" target="XJMGst-rCKcoRZPM2Gby-30">
          <mxGeometry relative="1" as="geometry">
            <Array as="points">
              <mxPoint x="354" y="459" />
              <mxPoint x="354" y="388" />
            </Array>
          </mxGeometry>
        </mxCell>
        <mxCell id="XJMGst-rCKcoRZPM2Gby-65" style="edgeStyle=orthogonalEdgeStyle;rounded=0;orthogonalLoop=1;jettySize=auto;html=1;exitX=0.5;exitY=0.5;exitDx=0;exitDy=0;exitPerimeter=0;entryX=1;entryY=0.5;entryDx=0;entryDy=0;" edge="1" parent="1" source="7GfxxB9h6kD8QiFGx-IR-2" target="XJMGst-rCKcoRZPM2Gby-58">
          <mxGeometry relative="1" as="geometry">
            <Array as="points">
              <mxPoint x="352" y="459" />
              <mxPoint x="352" y="533" />
            </Array>
          </mxGeometry>
        </mxCell>
        <mxCell id="7GfxxB9h6kD8QiFGx-IR-2" value="Conductor" style="shape=umlActor;verticalLabelPosition=bottom;verticalAlign=top;html=1;outlineConnect=0;" vertex="1" parent="1">
          <mxGeometry x="401" y="429" width="30" height="60" as="geometry" />
        </mxCell>
        <mxCell id="XJMGst-rCKcoRZPM2Gby-61" style="edgeStyle=orthogonalEdgeStyle;rounded=0;orthogonalLoop=1;jettySize=auto;html=1;exitX=0.5;exitY=0.5;exitDx=0;exitDy=0;exitPerimeter=0;entryX=0;entryY=0.5;entryDx=0;entryDy=0;" edge="1" parent="1" source="XJMGst-rCKcoRZPM2Gby-3" target="XJMGst-rCKcoRZPM2Gby-48">
          <mxGeometry relative="1" as="geometry" />
        </mxCell>
        <mxCell id="XJMGst-rCKcoRZPM2Gby-3" value="Administrador" style="shape=umlActor;verticalLabelPosition=bottom;verticalAlign=top;html=1;outlineConnect=0;" vertex="1" parent="1">
          <mxGeometry x="-271" y="502.5" width="30" height="60" as="geometry" />
        </mxCell>
        <mxCell id="XJMGst-rCKcoRZPM2Gby-4" value="" style="rounded=1;whiteSpace=wrap;html=1;arcSize=13;fillColor=none;" vertex="1" parent="1">
          <mxGeometry x="-185" y="181" width="509" height="423" as="geometry" />
        </mxCell>
        <mxCell id="XJMGst-rCKcoRZPM2Gby-5" value="Aplicación" style="text;html=1;align=center;verticalAlign=middle;resizable=0;points=[];autosize=1;strokeColor=none;fillColor=none;" vertex="1" parent="1">
          <mxGeometry x="12" y="153" width="73" height="26" as="geometry" />
        </mxCell>
        <mxCell id="XJMGst-rCKcoRZPM2Gby-21" style="edgeStyle=orthogonalEdgeStyle;rounded=0;orthogonalLoop=1;jettySize=auto;html=1;entryX=0;entryY=0.5;entryDx=0;entryDy=0;" edge="1" parent="1" source="XJMGst-rCKcoRZPM2Gby-16" target="XJMGst-rCKcoRZPM2Gby-20">
          <mxGeometry relative="1" as="geometry" />
        </mxCell>
        <mxCell id="XJMGst-rCKcoRZPM2Gby-16" value="Selecciona destino" style="rounded=1;whiteSpace=wrap;html=1;" vertex="1" parent="1">
          <mxGeometry x="-120" y="204" width="78" height="35" as="geometry" />
        </mxCell>
        <mxCell id="XJMGst-rCKcoRZPM2Gby-20" value="Confirma y Paga" style="rounded=1;whiteSpace=wrap;html=1;" vertex="1" parent="1">
          <mxGeometry y="204" width="78" height="35" as="geometry" />
        </mxCell>
        <mxCell id="XJMGst-rCKcoRZPM2Gby-26" value="Comprueba&lt;div&gt;Disponibilidad&lt;/div&gt;" style="rounded=1;whiteSpace=wrap;html=1;" vertex="1" parent="1">
          <mxGeometry x="-120" y="260.5" width="78" height="35" as="geometry" />
        </mxCell>
        <mxCell id="XJMGst-rCKcoRZPM2Gby-28" value="Elige Ubicación actual" style="rounded=1;whiteSpace=wrap;html=1;" vertex="1" parent="1">
          <mxGeometry x="-125" y="317" width="88" height="35" as="geometry" />
        </mxCell>
        <mxCell id="XJMGst-rCKcoRZPM2Gby-37" style="edgeStyle=orthogonalEdgeStyle;rounded=0;orthogonalLoop=1;jettySize=auto;html=1;entryX=1;entryY=0.5;entryDx=0;entryDy=0;" edge="1" parent="1" source="XJMGst-rCKcoRZPM2Gby-30" target="XJMGst-rCKcoRZPM2Gby-35">
          <mxGeometry relative="1" as="geometry" />
        </mxCell>
        <mxCell id="XJMGst-rCKcoRZPM2Gby-41" style="edgeStyle=orthogonalEdgeStyle;rounded=0;orthogonalLoop=1;jettySize=auto;html=1;entryX=0.5;entryY=1;entryDx=0;entryDy=0;" edge="1" parent="1" source="XJMGst-rCKcoRZPM2Gby-30" target="XJMGst-rCKcoRZPM2Gby-39">
          <mxGeometry relative="1" as="geometry" />
        </mxCell>
        <mxCell id="XJMGst-rCKcoRZPM2Gby-30" value="Comprueba Solicitudes" style="rounded=1;whiteSpace=wrap;html=1;" vertex="1" parent="1">
          <mxGeometry x="144.5" y="365.5" width="103" height="44" as="geometry" />
        </mxCell>
        <mxCell id="XJMGst-rCKcoRZPM2Gby-34" style="edgeStyle=orthogonalEdgeStyle;rounded=0;orthogonalLoop=1;jettySize=auto;html=1;" edge="1" parent="1" source="XJMGst-rCKcoRZPM2Gby-32">
          <mxGeometry relative="1" as="geometry">
            <mxPoint x="-256" y="335" as="targetPoint" />
          </mxGeometry>
        </mxCell>
        <mxCell id="XJMGst-rCKcoRZPM2Gby-32" value="Notifica Usuario" style="rounded=1;whiteSpace=wrap;html=1;" vertex="1" parent="1">
          <mxGeometry x="-127" y="370" width="92" height="35" as="geometry" />
        </mxCell>
        <mxCell id="XJMGst-rCKcoRZPM2Gby-38" style="edgeStyle=orthogonalEdgeStyle;rounded=0;orthogonalLoop=1;jettySize=auto;html=1;entryX=1;entryY=0.5;entryDx=0;entryDy=0;" edge="1" parent="1" source="XJMGst-rCKcoRZPM2Gby-35" target="XJMGst-rCKcoRZPM2Gby-32">
          <mxGeometry relative="1" as="geometry" />
        </mxCell>
        <mxCell id="XJMGst-rCKcoRZPM2Gby-35" value="Acepta Asignación" style="rounded=1;whiteSpace=wrap;html=1;" vertex="1" parent="1">
          <mxGeometry x="15" y="370" width="78" height="35" as="geometry" />
        </mxCell>
        <mxCell id="XJMGst-rCKcoRZPM2Gby-39" value="Revisa dirección asignación" style="rounded=1;whiteSpace=wrap;html=1;" vertex="1" parent="1">
          <mxGeometry x="148.5" y="294" width="95" height="35" as="geometry" />
        </mxCell>
        <mxCell id="XJMGst-rCKcoRZPM2Gby-63" style="edgeStyle=orthogonalEdgeStyle;rounded=0;orthogonalLoop=1;jettySize=auto;html=1;" edge="1" parent="1" source="XJMGst-rCKcoRZPM2Gby-45" target="XJMGst-rCKcoRZPM2Gby-32">
          <mxGeometry relative="1" as="geometry">
            <Array as="points">
              <mxPoint x="56" y="451" />
              <mxPoint x="-81" y="451" />
            </Array>
          </mxGeometry>
        </mxCell>
        <mxCell id="XJMGst-rCKcoRZPM2Gby-45" value="Cancela Asignación" style="rounded=1;whiteSpace=wrap;html=1;" vertex="1" parent="1">
          <mxGeometry x="18" y="515" width="84" height="35" as="geometry" />
        </mxCell>
        <mxCell id="XJMGst-rCKcoRZPM2Gby-62" style="edgeStyle=orthogonalEdgeStyle;rounded=0;orthogonalLoop=1;jettySize=auto;html=1;entryX=0;entryY=0.5;entryDx=0;entryDy=0;" edge="1" parent="1" source="XJMGst-rCKcoRZPM2Gby-48" target="XJMGst-rCKcoRZPM2Gby-45">
          <mxGeometry relative="1" as="geometry" />
        </mxCell>
        <mxCell id="XJMGst-rCKcoRZPM2Gby-48" value="Lista todas las asignaciones" style="rounded=1;whiteSpace=wrap;html=1;" vertex="1" parent="1">
          <mxGeometry x="-129" y="515" width="92" height="35" as="geometry" />
        </mxCell>
        <mxCell id="XJMGst-rCKcoRZPM2Gby-56" value="" style="edgeStyle=orthogonalEdgeStyle;rounded=0;orthogonalLoop=1;jettySize=auto;html=1;" edge="1" parent="1" source="XJMGst-rCKcoRZPM2Gby-20" target="XJMGst-rCKcoRZPM2Gby-55">
          <mxGeometry relative="1" as="geometry">
            <mxPoint x="90" y="222" as="sourcePoint" />
            <mxPoint x="163" y="221.4999999999999" as="targetPoint" />
          </mxGeometry>
        </mxCell>
        <mxCell id="XJMGst-rCKcoRZPM2Gby-55" value="Añade Solicitud" style="rounded=1;whiteSpace=wrap;html=1;" vertex="1" parent="1">
          <mxGeometry x="120" y="204" width="78" height="35" as="geometry" />
        </mxCell>
        <mxCell id="XJMGst-rCKcoRZPM2Gby-64" style="edgeStyle=orthogonalEdgeStyle;rounded=0;orthogonalLoop=1;jettySize=auto;html=1;" edge="1" parent="1" source="XJMGst-rCKcoRZPM2Gby-58" target="XJMGst-rCKcoRZPM2Gby-45">
          <mxGeometry relative="1" as="geometry" />
        </mxCell>
        <mxCell id="XJMGst-rCKcoRZPM2Gby-58" value="Comprueba Asignaciones" style="rounded=1;whiteSpace=wrap;html=1;" vertex="1" parent="1">
          <mxGeometry x="144.5" y="516.25" width="103" height="32.5" as="geometry" />
        </mxCell>
      </root>
    </mxGraphModel>
  </diagram>
</mxfile>
